inDegrees=yes
name=ik_S53_A08_T01
DataType=double
version=3
OpenSimVersion=4.3-2021-08-27-4bc7ad9
endheader
time	pelvis_tilt	pelvis_list	pelvis_rotation	pelvis_tx	pelvis_ty	pelvis_tz	hip_flexion_r	hip_adduction_r	hip_rotation_r	knee_angle_r	knee_angle_r_beta	ankle_angle_r	subtalar_angle_r	mtp_angle_r	hip_flexion_l	hip_adduction_l	hip_rotation_l	knee_angle_l	knee_angle_l_beta	ankle_angle_l	subtalar_angle_l	mtp_angle_l	lumbar_extension	lumbar_bending	lumbar_rotation	arm_flex_r	arm_add_r	arm_rot_r	elbow_flex_r	pro_sup_r	wrist_flex_r	wrist_dev_r	arm_flex_l	arm_add_l	arm_rot_l	elbow_flex_l	pro_sup_l	wrist_flex_l	wrist_dev_l
13.25000000000024	-2.909585251576894	-0.8596615241956621	29.92033321942488	0	0.9399999999999999	0	27.79889352652247	-9.228506630361661	-8.279524310976297	30.95065488094435	0.5401908333209324	0	0	0	27.79889352652247	-9.228506630361661	-8.279524310976297	30.95065488094435	0.5401908333209324	0	0	0	-0.6392655583230434	0.2417107296181576	5.716373711116205	27.53995117318863	-9.506911648390213	-4.185036405485262	52.67213993906051	154.0631298678983	0	0	90.70668724677344	-40.05687236108711	31.63437830289261	104.1385537384383	81.88979889206817	0	0
13.26666666666691	-2.901680147353911	-0.8594398979375877	29.90696077636288	0	0.9399999999999999	0	27.80325823920248	-9.229151203237526	-8.280449124373488	30.95515847121004	0.5402694357992295	0	0	0	27.80325823920248	-9.229151203237526	-8.280449124373488	30.95515847121004	0.5402694357992295	0	0	0	-0.6327913689098044	0.2381940248773851	5.704242365207949	27.60475052488789	-9.451912298828086	-4.22743785850764	52.61810454386553	154.1346104118142	0	0	90.70819325884871	-40.06202039684298	31.56349224469573	104.3553948834113	82.27609843033967	0	0
13.28333333333357	-2.898223051432709	-0.7849889300999517	29.91450141028871	0	0.9399999999999999	0	27.81216177098377	-9.230473727445345	-8.282342822387299	30.96429353470338	0.540428872734567	0	0	0	27.81216177098377	-9.230473727445345	-8.282342822387299	30.96429353470338	0.540428872734567	0	0	0	-0.593461408371758	0.3013180448161167	5.692818679536636	27.58327972812089	-9.543747260429347	-4.220315826091419	52.54720847198723	154.1808787165324	0	0	91.42795185480502	-40.02585987311089	31.81413091198424	104.243447430447	82.54757850669887	0	0
13.30000000000024	-2.88417712188739	-0.765915862045995	29.91169368064042	0	0.9399999999999999	0	27.81948913213073	-9.231558301664235	-8.283898101467244	30.97182797410526	0.5405603735094218	0	0	0	27.81948913213073	-9.231558301664235	-8.283898101467244	30.97182797410526	0.5405603735094218	0	0	0	-0.5723359427398417	0.3108672447480414	5.692280229994996	27.59119594508793	-9.503584874429626	-4.299402199017589	52.46176919210725	154.2824455754445	0	0	91.37048344664535	-39.99387428011692	31.65897861926255	104.6228420371405	83.14878076474662	0	0
13.31666666666691	-2.863722541500721	-0.7103021595043739	29.903549133272	0	0.9399999999999999	0	27.86310663183867	-9.237727291879256	-8.292941122555012	31.01670054678919	0.5413435476465969	0	0	0	27.86310663183867	-9.237727291879256	-8.292941122555012	31.01670054678919	0.5413435476465969	0	0	0	-0.530685314529631	0.3496054404910331	5.685795552137585	27.51341472185615	-9.581826179646402	-4.239519368601282	52.46478754814297	154.2471467009825	0	0	91.23505350172741	-40.006339243752	31.5963945134467	104.623492876084	83.16662595655518	0	0
13.33333333333358	-2.830996123364027	-0.6561592713839285	29.920589015219	0	0.9399999999999999	0	27.88031048051358	-9.240266609175439	-8.296590282093614	31.0343377600056	0.5416513750880995	0	0	0	27.88031048051358	-9.240266609175439	-8.296590282093614	31.0343377600056	0.5416513750880995	0	0	0	-0.4763592827245353	0.3812574015190793	5.660656128650105	27.49285469589999	-9.584194163905405	-4.287441966722563	52.37943128874214	154.3919787501896	0	0	93.89890631192655	-39.95432162475815	33.01927729980237	103.6044791023695	82.6665221073863	0	0
13.35000000000024	-2.837613528540514	-0.6133351970964902	29.9396268415111	0	0.9399999999999999	0	27.98069860830517	-9.252035107890448	-8.315635194968625	31.13910817876333	0.5434799638541151	0	0	0	27.98069860830517	-9.252035107890448	-8.315635194968625	31.13910817876333	0.5434799638541151	0	0	0	-0.4695297250235381	0.4231593601046021	5.647546378550895	27.45130528379892	-9.709526839451089	-4.224535803100633	52.39801989297469	154.3087124828031	0	0	93.81767832250843	-39.94642300844102	32.92188007643264	103.5892755100313	82.66797418941808	0	0
